<svg id="Component_7_14" data-name="Component 7 – 14" xmlns="http://www.w3.org/2000/svg" width="28.465" height="28.012" viewBox="0 0 28.465 28.012">
  <path id="Path_5285" data-name="Path 5285" d="M-1514.773,701.374h-17.3a5.867,5.867,0,0,0-5.4,5.6v16.9a6.02,6.02,0,0,0,5.326,5.509h10.339V718.141h-3.707v-3.875h3.707v-4.209a4.334,4.334,0,0,1,4.132-4.215h4.151v3.526h-1.915c-.945,0-2.2.764-2.2,1.707v3.191h3.738v3.875h-3.738v11.245h3.2a5.861,5.861,0,0,0,5.433-5.563V706.84A6.015,6.015,0,0,0-1514.773,701.374Z" transform="translate(1537.473 -701.374)" fill="#dfdfdf"/>
</svg>
