<svg id="Component_8_11" data-name="Component 8 – 11" xmlns="http://www.w3.org/2000/svg" width="28.048" height="28.048" viewBox="0 0 28.048 28.048">
  <path id="Path_5282" data-name="Path 5282" d="M-1480.323,705.144a6.357,6.357,0,0,0-1.312-1.9,6.344,6.344,0,0,0-4.5-1.865h-15.32a6.336,6.336,0,0,0-4.5,1.865,6.32,6.32,0,0,0-1.315,1.9,6.351,6.351,0,0,0-.55,2.594v15.32a6.31,6.31,0,0,0,.736,2.971,6.391,6.391,0,0,0,1.129,1.53,6.346,6.346,0,0,0,4.5,1.864h15.32a6.353,6.353,0,0,0,4.5-1.864,6.453,6.453,0,0,0,1.128-1.53,6.324,6.324,0,0,0,.736-2.971v-15.32A6.336,6.336,0,0,0-1480.323,705.144Zm-3.175,14.606a5.946,5.946,0,0,1-5.944,5.945h-8.706a5.945,5.945,0,0,1-5.944-5.945v-8.7a5.947,5.947,0,0,1,5.944-5.947h8.706a5.948,5.948,0,0,1,5.944,5.947Z" transform="translate(1507.82 -701.374)" fill="#dfdfdf"/>
  <path id="Path_5283" data-name="Path 5283" d="M-1495.819,709.953a3.465,3.465,0,0,0-3.464,3.464,3.464,3.464,0,0,0,3.464,3.462,3.463,3.463,0,0,0,3.465-3.462A3.464,3.464,0,0,0-1495.819,709.953Z" transform="translate(1509.842 -699.342)" fill="#dfdfdf"/>
  <path id="Path_5284" data-name="Path 5284" d="M-1490.419,705.962h-8.909a3.945,3.945,0,0,0-3.946,3.945v8.909a3.947,3.947,0,0,0,3.946,3.947h8.909a3.947,3.947,0,0,0,3.947-3.947v-8.909A3.945,3.945,0,0,0-1490.419,705.962Zm-4.454,13.744a5.344,5.344,0,0,1-5.343-5.343,5.344,5.344,0,0,1,5.343-5.344,5.345,5.345,0,0,1,5.344,5.344A5.346,5.346,0,0,1-1494.873,719.706Zm5.521-9.646a1.246,1.246,0,0,1-1.245-1.246,1.247,1.247,0,0,1,1.245-1.244,1.246,1.246,0,0,1,1.245,1.244A1.246,1.246,0,0,1-1489.352,710.06Z" transform="translate(1508.896 -700.287)" fill="#dfdfdf"/>
</svg>
