<svg xmlns="http://www.w3.org/2000/svg" width="170.816" height="27.701" viewBox="0 0 170.816 27.701">
  <g id="Group_406" data-name="Group 406" transform="translate(0.15 0.151)">
    <path id="Path_5002" data-name="Path 5002" d="M462.822,8808.49v10.435h-1.416v-5.356h-6.15v5.356h-1.412V8808.49h1.412v3.9h6.15v-3.9Z" transform="translate(-437.716 -8791.635)" fill="#000003" stroke="#000" stroke-width="0.3"/>
    <path id="Path_5003" data-name="Path 5003" d="M465.2,8808.49h1.2l4.565,10.435h-1.51l-.858-2.218h-5.517l-.943,2.218h-1.512Zm3.075,7.187-2.477-5.659-2.441,5.659Z" transform="translate(-429.419 -8791.635)" fill="#000003" stroke="#000" stroke-width="0.3"/>
    <path id="Path_5004" data-name="Path 5004" d="M474.734,8818.925V8808.49h1.419v9.266h5.8v1.169Z" transform="translate(-412.156 -8791.635)" fill="#000003" stroke="#000" stroke-width="0.3"/>
    <path id="Path_5005" data-name="Path 5005" d="M488.521,8817.756v1.169h-7.584V8808.49h7.442v1.177h-6.03v2.81h5.243v1.1h-5.243v4.18Z" transform="translate(-404.567 -8791.635)" fill="#000003" stroke="#000" stroke-width="0.3"/>
    <path id="Path_5006" data-name="Path 5006" d="M494.336,8810.721a2.433,2.433,0,0,0-.5-.4,5.309,5.309,0,0,0-.709-.349,6.2,6.2,0,0,0-.856-.252,4.892,4.892,0,0,0-.969-.093,3.215,3.215,0,0,0-1.912.456,1.472,1.472,0,0,0-.6,1.247,1.327,1.327,0,0,0,.173.711,1.386,1.386,0,0,0,.54.476,4.146,4.146,0,0,0,.923.349c.362.1.8.2,1.31.308a15.372,15.372,0,0,1,1.563.405,4.8,4.8,0,0,1,1.194.561,2.323,2.323,0,0,1,.752.826,2.417,2.417,0,0,1,.258,1.191,2.537,2.537,0,0,1-.311,1.3,2.625,2.625,0,0,1-.858.915,3.911,3.911,0,0,1-1.276.532,7.4,7.4,0,0,1-1.61.169,7.857,7.857,0,0,1-2.448-.379,7,7,0,0,1-2.1-1.092l.672-1.118a4.634,4.634,0,0,0,.656.5,5.421,5.421,0,0,0,.914.447,7.665,7.665,0,0,0,1.1.322,6.037,6.037,0,0,0,1.236.128,3.589,3.589,0,0,0,1.854-.4,1.294,1.294,0,0,0,.663-1.194,1.211,1.211,0,0,0-.216-.733,1.686,1.686,0,0,0-.616-.526,4.9,4.9,0,0,0-1.018-.388c-.4-.113-.867-.231-1.376-.346-.571-.127-1.061-.269-1.494-.41a4.221,4.221,0,0,1-1.076-.529,2.073,2.073,0,0,1-.656-.749,2.4,2.4,0,0,1-.22-1.064,2.746,2.746,0,0,1,1.134-2.292,3.891,3.891,0,0,1,1.27-.6,6.553,6.553,0,0,1,1.612-.2,6.073,6.073,0,0,1,2.041.326,5.8,5.8,0,0,1,1.621.865Z" transform="translate(-397.281 -8791.675)" fill="#000003" stroke="#000" stroke-width="0.3"/>
    <path id="Path_5007" data-name="Path 5007" d="M509.3,8819.045a5.013,5.013,0,0,1-2.143-.45,5.217,5.217,0,0,1-2.733-2.89,5.257,5.257,0,0,1-.378-1.952,5.175,5.175,0,0,1,.4-2,5.483,5.483,0,0,1,1.107-1.692,5.3,5.3,0,0,1,1.679-1.167,5.083,5.083,0,0,1,2.1-.436,4.848,4.848,0,0,1,2.141.465,5.4,5.4,0,0,1,2.717,2.912,5.027,5.027,0,0,1,.378,1.929,5.1,5.1,0,0,1-.4,2,5.339,5.339,0,0,1-2.766,2.848A5.127,5.127,0,0,1,509.3,8819.045Zm-3.82-5.292a4.352,4.352,0,0,0,.271,1.535,4.243,4.243,0,0,0,.78,1.313,3.72,3.72,0,0,0,1.212.911,3.748,3.748,0,0,0,3.177-.025,3.751,3.751,0,0,0,1.2-.933,4.054,4.054,0,0,0,.754-1.316,4.365,4.365,0,0,0-.018-3.029,3.949,3.949,0,0,0-.787-1.3,3.7,3.7,0,0,0-1.21-.9,3.411,3.411,0,0,0-1.55-.343,3.584,3.584,0,0,0-1.6.352,4.036,4.036,0,0,0-1.2.931,4.236,4.236,0,0,0-.767,1.308A4.356,4.356,0,0,0,505.477,8813.753Z" transform="translate(-376.296 -8791.675)" fill="#000003" stroke="#000" stroke-width="0.3"/>
    <g id="Group_405" data-name="Group 405" transform="translate(16.274)">
      <path id="Path_5008" data-name="Path 5008" d="M453.909,8806.608v-5.682H458.1v.793h-3.2v1.087h3.164v.743H454.9v3.059Z" transform="translate(-453.909 -8800.887)" fill="#000003" stroke="#000" stroke-width="0.3"/>
      <path id="Path_5009" data-name="Path 5009" d="M463.85,8806.666a2.995,2.995,0,0,1-2.179-.892,2.881,2.881,0,0,1-.614-.925,2.683,2.683,0,0,1-.218-1.062,2.629,2.629,0,0,1,.231-1.089,3.013,3.013,0,0,1,.631-.92,3.012,3.012,0,0,1,2.166-.869,2.9,2.9,0,0,1,1.227.252,2.977,2.977,0,0,1,1.559,1.585,2.646,2.646,0,0,1,.216,1.047,2.723,2.723,0,0,1-.225,1.09,2.872,2.872,0,0,1-.634.916,3.167,3.167,0,0,1-.961.632A3.066,3.066,0,0,1,463.85,8806.666Zm-2-2.878a2.15,2.15,0,0,0,.142.775,2.03,2.03,0,0,0,.4.662,1.87,1.87,0,0,0,.634.462,1.945,1.945,0,0,0,.832.172,1.911,1.911,0,0,0,.847-.18,1.981,1.981,0,0,0,.623-.476,2.109,2.109,0,0,0,.391-.666,2.227,2.227,0,0,0,.131-.75,2.176,2.176,0,0,0-.14-.78,2.035,2.035,0,0,0-.4-.657,1.985,1.985,0,0,0-.629-.456,1.926,1.926,0,0,0-.818-.169,1.9,1.9,0,0,0-.849.178,2,2,0,0,0-1.023,1.129A2.163,2.163,0,0,0,461.849,8803.788Z" transform="translate(-445.43 -8800.91)" fill="#000003" stroke="#000" stroke-width="0.3"/>
      <path id="Path_5010" data-name="Path 5010" d="M469.874,8802.605v4h-.994v-5.682h.78l3.6,4.095v-4.087h1v5.674h-.823Z" transform="translate(-435.592 -8800.887)" fill="#000003" stroke="#000" stroke-width="0.3"/>
      <path id="Path_5011" data-name="Path 5011" d="M476.8,8806.608v-5.682h2.232a3.612,3.612,0,0,1,1.332.224,2.7,2.7,0,0,1,.956.609,2.474,2.474,0,0,1,.58.9,3.068,3.068,0,0,1,.2,1.1,3.03,3.03,0,0,1-.218,1.171,2.512,2.512,0,0,1-.616.9,2.681,2.681,0,0,1-.965.576,3.716,3.716,0,0,1-1.265.207Zm4.287-2.851a2.389,2.389,0,0,0-.138-.821,1.742,1.742,0,0,0-.4-.646,1.969,1.969,0,0,0-.647-.421,2.358,2.358,0,0,0-.867-.149h-1.241v4.095h1.241a2.379,2.379,0,0,0,.88-.156,1.767,1.767,0,0,0,1.041-1.083A2.43,2.43,0,0,0,481.089,8803.758Z" transform="translate(-425.899 -8800.887)" fill="#000003" stroke="#000" stroke-width="0.3"/>
      <path id="Path_5012" data-name="Path 5012" d="M486.628,8800.927h.867l2.479,5.682h-1.045l-.665-1.544h-2.426l-.654,1.544h-1.054Zm1.443,3.473-1.009-2.442-1.045,2.442Z" transform="translate(-416.932 -8800.887)" fill="#000003" stroke="#000" stroke-width="0.3"/>
      <path id="Path_5013" data-name="Path 5013" d="M496.629,8801.72h-2.09v4.889h-1v-4.889h-2.1v-.793h5.19Z" transform="translate(-407.991 -8800.887)" fill="#000003" stroke="#000" stroke-width="0.3"/>
      <path id="Path_5014" data-name="Path 5014" d="M499.018,8806.608v-5.682h.994v5.682Z" transform="translate(-398.718 -8800.887)" fill="#000003" stroke="#000" stroke-width="0.3"/>
      <path id="Path_5015" data-name="Path 5015" d="M507.8,8806.666a2.994,2.994,0,0,1-2.179-.892,2.891,2.891,0,0,1-.616-.925,2.722,2.722,0,0,1-.216-1.062,2.663,2.663,0,0,1,.229-1.089,3.019,3.019,0,0,1,.634-.92,3.065,3.065,0,0,1,.956-.638,3.033,3.033,0,0,1,1.21-.231,2.889,2.889,0,0,1,1.225.252,2.977,2.977,0,0,1,1.559,1.585,2.652,2.652,0,0,1,.218,1.047,2.688,2.688,0,0,1-.227,1.09,2.83,2.83,0,0,1-.632.916,3.178,3.178,0,0,1-.963.632A3.055,3.055,0,0,1,507.8,8806.666Zm-2-2.878a2.2,2.2,0,0,0,.14.775,2.069,2.069,0,0,0,.4.662,1.914,1.914,0,0,0,.634.462,1.962,1.962,0,0,0,.834.172,1.9,1.9,0,0,0,.845-.18,1.991,1.991,0,0,0,.625-.476,2.1,2.1,0,0,0,.389-.666,2.177,2.177,0,0,0,.133-.75,2.13,2.13,0,0,0-.142-.78,2.033,2.033,0,0,0-.4-.657,2.011,2.011,0,0,0-.629-.456,1.926,1.926,0,0,0-.818-.169,1.9,1.9,0,0,0-.852.178,2,2,0,0,0-.627.47,2.051,2.051,0,0,0-.4.659A2.162,2.162,0,0,0,505.8,8803.788Z" transform="translate(-391.656 -8800.91)" fill="#000003" stroke="#000" stroke-width="0.3"/>
      <path id="Path_5016" data-name="Path 5016" d="M513.823,8802.605v4h-.992v-5.682h.778l3.6,4.095v-4.087h1v5.674h-.825Z" transform="translate(-381.818 -8800.887)" fill="#000003" stroke="#000" stroke-width="0.3"/>
    </g>
    <path id="Path_5017" data-name="Path 5017" d="M476.48,8818.938l-1.932-5.227a2.8,2.8,0,0,0,1.694-2.527,2.7,2.7,0,0,0-2.7-2.7h-5.51v10.457H469.5v-5.052h3.575l1.817,5.052Zm-6.98-6.257v-3.021h4.049a1.491,1.491,0,0,1,1.49,1.489,1.529,1.529,0,0,1-1.49,1.531Z" transform="translate(-420.355 -8791.646)" fill="#000003" stroke="#000" stroke-width="0.3"/>
    <path id="Path_5018" data-name="Path 5018" d="M520.2,8818.948l-1.93-5.231a2.8,2.8,0,0,0,1.692-2.529,2.7,2.7,0,0,0-2.7-2.7h-5.512v10.462h1.47v-5.057h3.575l1.817,5.057Zm-6.977-6.263v-3.02h4.047a1.49,1.49,0,0,1,1.49,1.488,1.527,1.527,0,0,1-1.49,1.531Z" transform="translate(-366.868 -8791.641)" fill="#000003" stroke="#000" stroke-width="0.3"/>
    <path id="Path_5019" data-name="Path 5019" d="M455.56,8815.551a4.1,4.1,0,0,1-3.678,2.312,4.11,4.11,0,0,1,0-8.216,4.1,4.1,0,0,1,3.66,2.285l1.047-.55a5.291,5.291,0,1,0,.016,4.715Z" transform="translate(-446.59 -8791.667)" fill="#000003" stroke="#000" stroke-width="0.3"/>
    <path id="Path_5020" data-name="Path 5020" d="M506.1,8815.551a4.1,4.1,0,0,1-3.678,2.312,4.11,4.11,0,0,1,0-8.216,4.1,4.1,0,0,1,3.66,2.285l1.047-.55a5.291,5.291,0,1,0,.016,4.715Z" transform="translate(-384.757 -8791.667)" fill="#000003" stroke="#000" stroke-width="0.3"/>
    <path id="Path_5021" data-name="Path 5021" d="M528.2,8808.5h-1.407l-2.974,8.262-2.975-8.262H518.45v10.438h1.42v-8.739l3.146,8.739h1.6l3.146-8.739v8.739h1.42V8808.5Z" transform="translate(-358.669 -8791.629)" fill="#000003" stroke="#000" stroke-width="0.3"/>
  </g>
</svg>
