<svg id="Component_9_11" data-name="Component 9 – 11" xmlns="http://www.w3.org/2000/svg" width="33.034" height="27.276" viewBox="0 0 33.034 27.276">
  <path id="Path_7156" data-name="Path 7156" d="M130.57,944.167a14.553,14.553,0,0,1-9.746,2.935,4.1,4.1,0,0,0,.78.538,19.536,19.536,0,0,0,12.763,2.156c10.273-1.636,16.216-10.654,16.205-19.435a1.409,1.409,0,0,1,.616-1.274,11.258,11.258,0,0,0,2.669-2.9l-3.477.949a8.523,8.523,0,0,0,2.6-3.624c-1.224.445-2.415.873-3.6,1.312a1.045,1.045,0,0,1-1.166-.289,6.577,6.577,0,0,0-6.847-1.3,6.447,6.447,0,0,0-4.409,5.227,16.635,16.635,0,0,0-.025,2.8,19.79,19.79,0,0,1-14.172-7.2c-1.654,3.626-.931,6.6,1.865,9.263l-2.809-.8c.181,3.426,1.995,5.568,5.188,6.685l-.078.159h-2.619C124.861,941.822,127.28,943.7,130.57,944.167Z" transform="translate(-120.824 -922.792)" fill="#dfdfdf"/>
</svg>
